# xmcd CD database file
#
# Track frame offsets:
#	150
#	25935
#	53275
#	82687
#	109150
#	137507
#	163865
#	194600
#
# Disc length: 2895 seconds
#
# Revision: 0
# Processed by: cddbd v1.4PL0 Copyright (c) Steve Scherf et al.
# Submitted via: CDex 1.50Beta7
#
DISCID=5b0b4d08
DTITLE=Robert Leblanc - New Age For Kids
DYEAR=1900
DGENRE=New Age
TTITLE0=Annie
TTITLE1=Guillaume
TTITLE2=Jeremy
TTITLE3=Olivier
TTITLE4=Catherine
TTITLE5=Martin
TTITLE6=Kids To Come
TTITLE7=Philomène
EXTD=
EXTT0=
EXTT1=
EXTT2=
EXTT3=
EXTT4=
EXTT5=
EXTT6=
EXTT7=
PLAYORDER=
